<svg id="visual" viewBox="0 0 960 540" width="960" height="540" xmlns="http://www.w3.org/2000/svg" xmlns:xlink="http://www.w3.org/1999/xlink" version="1.1"><rect x="0" y="0" width="960" height="540" fill="#001220"></rect><defs><linearGradient id="grad1_0" x1="43.8%" y1="0%" x2="100%" y2="100%"><stop offset="14.444444444444446%" stop-color="#001220" stop-opacity="1"></stop><stop offset="85.55555555555554%" stop-color="#001220" stop-opacity="1"></stop></linearGradient></defs><defs><linearGradient id="grad2_0" x1="0%" y1="0%" x2="56.3%" y2="100%"><stop offset="14.444444444444446%" stop-color="#001220" stop-opacity="1"></stop><stop offset="85.55555555555554%" stop-color="#001220" stop-opacity="1"></stop></linearGradient></defs><g transform="translate(960, 0)"><path d="M0 486C-72.3 487.8 -144.6 489.5 -186 449C-227.3 408.5 -237.7 325.6 -277.9 277.9C-318.1 230.2 -388.1 217.6 -427.8 177.2C-467.4 136.7 -476.7 68.4 -486 0L0 0Z" fill="#a92828"></path></g><g transform="translate(0, 540)"><path d="M0 -486C62.1 -467.5 124.1 -449 173.4 -418.5C222.6 -388 258.9 -345.5 307.6 -307.6C356.3 -269.7 417.2 -236.5 449 -186C480.8 -135.5 483.4 -67.7 486 0L0 0Z" fill="#a92828"></path></g></svg>