<svg id="Capa_1" data-name="Capa 1" xmlns="http://www.w3.org/2000/svg" viewBox="0 0 581.66 261.17"><defs><style>.cls-1,.cls-2,.cls-3,.cls-4,.cls-5{fill:none;stroke-miterlimit:10;}.cls-1{stroke:#4563ab;}.cls-2{stroke:#d2a046;}.cls-3{stroke:#e26140;}.cls-4{stroke:#57509c;}.cls-5{stroke:#c05399;stroke-width:1.5px;}</style></defs><path class="cls-1" d="M35.92,177.57c10.69,5.21,24.89,12,26.22,25.81-6.39-1.72-9.58-2.68-16-4.83-.6-3.65-3.66-6.4-10.26-9-9.24-3.7-10.8-1-10.8,3.19s1.62,8.7,10.8,11.89c6.6,2.3,9.66,1.41,10.26-1.88,6.38,2.07,9.57,3,16,4.66-.6,13.83-17,11.71-26.22,9-14.72-4.36-26-15-26.4-30.84C9.08,168.76,25.71,172.59,35.92,177.57Z" transform="translate(-8.88 -19.69)"/><path class="cls-1" d="M78.94,214.27c0,1.63,1.92,3.23,11.82,4.7,9.24,1.38,10.62.95,10.62-.26,0-1.39-1.57-1.84-11.22-3.34-8.69-1.36-27.48-7-26.22-16.46,1.19-8.92,17.32-6.73,25.62-5.1,8.71,1.72,24.57,3.43,25.62,15-6.24-.48-9.36-.8-15.6-1.61,0-1.77-3.6-2.54-11.22-3.87-7.32-1.27-8.82-1.4-8.82-.08s1.57,1.83,10.62,3.52c8.37,1.56,26.57,3.1,26.82,13.09.26,10.83-18.9,9.15-26.82,8.23-9.79-1.14-26.3-4.59-26.82-17.28C69.58,212.4,72.7,213.08,78.94,214.27Z" transform="translate(-8.88 -19.69)"/><path class="cls-1" d="M133.78,220c0,1.58,1.92,2.8,11.82,2.79,9.24,0,10.62-.61,10.62-1.84,0-1.42-1.61-1.69-11.22-1.66-8.36,0-27-2.59-26.22-11.4.72-8.56,16.75-10,25.62-10.32,7.68-.27,25.35-1.08,25.62,11-6.24.49-9.36.68-15.6.93,0-1.83-3.6-2-11.22-1.92-7.32.09-8.82.28-8.82,1.59s1.58,1.47,10.62,1.55c8,.08,26.61-1.23,26.82,9.28.22,11.29-18,11.82-26.82,11.92s-26.19-.46-26.82-12.61C124.42,219.72,127.54,219.86,133.78,220Z" transform="translate(-8.88 -19.69)"/><path class="cls-2" d="M59.78,48c.63,16.15-9.62,25.14-25.2,22-14-2.78-25.17-12.3-25.19-27.33,6.24.82,9.36,1.21,15.59,1.92,0,4.88,1.63,9.47,9.6,10.59s9.6-3.39,9.6-8.58V37.55C38.74,37.2,36,37,30.56,36.62V21.89l29.22.21Z" transform="translate(-8.88 -19.69)"/><path class="cls-2" d="M94.1,67.78C87,67.25,83.38,67,76.22,66.25c-1.15,3.7-1.72,5.53-2.88,9.15-6.86-.83-10.29-1.29-17.15-2.33Q65.3,47.75,73.58,22.18l23.16.11q8.67,28.34,17.4,56.66c-6.86-.38-10.29-.61-17.16-1.17C95.83,73.78,95.26,71.78,94.1,67.78ZM90,53.47c-1.94-6.81-2.91-10.22-4.86-17-1.94,6.67-2.91,9.95-4.86,16.4C84.19,53.12,86.14,53.24,90,53.47Z" transform="translate(-8.88 -19.69)"/><path class="cls-2" d="M157.1,22.42c-5.62,19.22-11.36,38.42-17.4,57.52-9.26-.21-13.89-.37-23.16-.86Q107.75,50.73,99.15,22.3l17.15.05q5.86,21.45,11.82,42.87,6-21.37,11.82-42.82Z" transform="translate(-8.88 -19.69)"/><path class="cls-2" d="M180,69.94c-7.15.11-10.72.14-17.88.14-1.15,4-1.72,6.07-2.88,10.06-6.86,0-10.29,0-17.15-.15,6-19.12,11.77-38.33,17.39-57.57h23.16c5.57,19,11.26,38,17.4,56.88-6.86.27-10.29.38-17.16.54C181.75,75.92,181.18,73.94,180,69.94Zm-4.08-14.5c-1.94-7-2.91-10.54-4.86-17.73-1.94,7.19-2.91,10.74-4.86,17.76C170.11,55.47,172.06,55.46,175.94,55.44Z" transform="translate(-8.88 -19.69)"/><path class="cls-2" d="M212.66,58.82c0,2.66,1.92,4.25,11.82,3.08,9.24-1.08,10.62-2,10.62-3.92,0-2.21-1.78-2.66-11.22-1.7-12,1.23-26.44-1.24-26.21-16.18.2-13.72,13.82-19,25.61-18.64,11.4.33,25.71,3.56,25.62,17.79-6.24.42-9.36.62-15.6,1,0-2.81-3.6-3.23-11.22-2.84-7.32.38-8.82.94-8.82,3.11s1.6,2.11,10.62,1.88c9.93-.25,27-.77,26.82,13.31-.18,14.59-15.14,19-26.82,21.16-13.28,2.5-27.1-.81-26.81-17C203.3,59.82,206.42,59.46,212.66,58.82Z" transform="translate(-8.88 -19.69)"/><path class="cls-2" d="M277.7,21.19c12.2.16,25.56,4.42,26.22,18.64l-16,1.41c-.6-4.09-3.66-6-10.26-5.58-9.23.58-10.8,5.11-10.8,10.11s1.62,9.3,10.8,8.12c6.6-.84,9.66-3.38,10.26-7.64l16-1.7c-.86,14.46-13.49,21-26.22,23.52-15.78,3.08-26-5.15-26.39-20.83S262,21,277.7,21.19Z" transform="translate(-8.88 -19.69)"/><path class="cls-2" d="M347.36,45.45c3,3.63,4.47,5.41,7.44,8.93-7.39,1.18-11.09,1.79-18.48,3-2.33-3.09-3.49-4.66-5.82-7.85l-9.18,1.26v9.12l-15.6,2.67v-41l33-.26c9.54-.07,16.08,4.88,16.08,12.17C354.8,38.31,352,42.63,347.36,45.45Zm-26-6.75,14.4-1.27c1.56-.14,3.48-.31,3.48-2.73s-1.92-2.29-3.48-2.19l-14.4.94Z" transform="translate(-8.88 -19.69)"/><path class="cls-2" d="M372.2,51.65c-6.24,1-9.36,1.44-15.6,2.44V21.24l15.6-.12Z" transform="translate(-8.88 -19.69)"/><path class="cls-2" d="M423.68,30.47c0,5.76-6.54,10.31-16.08,10.51a156.14,156.14,0,0,0-17.4,1V49c-6.24.87-9.36,1.33-15.6,2.27V21.1q16.5-.11,33-.16C417.14,20.94,423.68,24.71,423.68,30.47Zm-15.6.09c0-1.79-1.92-1.77-3.48-1.75-5.76,0-8.64.09-14.4.41V33c5.76-.43,8.64-.5,14.4-.57C406.16,32.39,408.08,32.36,408.08,30.56Z" transform="translate(-8.88 -19.69)"/><path class="cls-2" d="M476.48,29.11c-7.2-.13-10.8-.18-18-.26V47.4c-6.24-.13-9.36-.16-15.6-.18V28.73c-7.2,0-10.8,0-18,0V20.94q25.8,0,51.6.06Z" transform="translate(-8.88 -19.69)"/><path class="cls-3" d="M67.06,109.58v49.54c-6.24-1.72-9.36-2.69-15.6-4.89V137.87a221.59,221.59,0,0,1-24.6-9.23V144c-6.24-3-9.36-4.63-15.6-8.18V93.4c6.24,2.41,9.36,3.53,15.6,5.59v15.5a246.7,246.7,0,0,0,24.6,8.25V106.08C57.7,107.63,60.82,108.33,67.06,109.58Z" transform="translate(-8.88 -19.69)"/><path class="cls-3" d="M120.46,132.87c-7.2-.45-10.8-.75-18-1.56v34.8c-6.24-.77-9.36-1.25-15.6-2.41V129.17c-7.2-1.16-10.8-1.84-18-3.43v-15.8a497.73,497.73,0,0,0,51.6,6.44Z" transform="translate(-8.88 -19.69)"/><path class="cls-3" d="M186.58,164.4c-6.24.87-9.36,1.25-15.6,1.89V143.34c-4.58,9.71-6.88,14.5-11.46,23.94-4.08.29-6.12.41-10.2.57-4.58-9-6.87-13.78-11.46-23.52v23.79c-6.24,0-9.36,0-15.6-.33v-51.3c7.68.43,11.52.56,19.2.68,4.24,9.83,8.48,19.64,13,29.36,4.4-9.83,8.69-19.72,13-29.61,7.68-.25,11.52-.44,19.2-.92Z" transform="translate(-8.88 -19.69)"/><path class="cls-3" d="M232.18,140.62v14c-14.36,3.73-28.54,7.12-43.2,9.43V115.84c6.24-.41,9.36-.2,15.6-1.4v32.84C213.82,145.26,223,143,232.18,140.62Z" transform="translate(-8.88 -19.69)"/><path class="cls-4" d="M59.46,260.38c0,7.28-6.54,12.17-16.08,11.74-7-.31-10.44-.48-17.4-.85v8.91l-15.6,0V238.5c11,2.49,21.92,4.72,33,6.75C52.92,246.88,59.46,253.1,59.46,260.38Zm-15.6-1.57c0-2.4-1.92-2.64-3.48-2.83-5.76-.72-8.64-1.11-14.4-1.95v5.25c5.76.68,8.64,1,14.4,1.58C41.94,261,43.86,261.21,43.86,258.81Z" transform="translate(-8.88 -19.69)"/><path class="cls-4" d="M117.06,253.19v27.14h-15.6V271c-9.84-.28-14.76-.45-24.6-.87v10.17l-15.6,0V248c6.24.87,9.36,1.26,15.6,2v10.63c9.84.76,14.76,1.07,24.6,1.58v-10C107.7,252.68,110.82,252.87,117.06,253.19Z" transform="translate(-8.88 -19.69)"/><path class="cls-4" d="M168.54,264.75c0,6-6.54,9.89-16.08,9.85-7,0-10.44-.05-17.4-.12v5.86h-15.6v-27c11,.44,22,.73,33,.88C162,254.25,168.54,258.79,168.54,264.75Zm-15.6,0c0-1.83-1.92-1.86-3.48-1.87-5.76-.06-8.64-.11-14.4-.24v3.69c5.76.11,8.64.15,14.4.21C151,266.51,152.94,266.54,152.94,264.71Z" transform="translate(-8.88 -19.69)"/><path class="cls-5" d="M188.19,280.11c134-.05,268-1.1,402-.4" transform="translate(-8.88 -19.69)"/><path class="cls-5" d="M188.19,230.43c68.22-5.22,133.71-33.27,201-44.89,66.35-11.45,138.44-2.4,201,21.17" transform="translate(-8.88 -19.69)"/><path class="cls-5" d="M188.19,253.5c67.46-2.25,134-22.48,201-30.08,66-7.49,136.58-.5,201,14.29" transform="translate(-8.88 -19.69)"/><path class="cls-5" d="M250.19,106c55.58-13.41,112.57-33.48,170-36.47,58.38-3,115,3.58,170,24.23" transform="translate(-8.88 -19.69)"/><path class="cls-5" d="M250.19,149.83c115.29-34.1,225.5-77.65,340-15.12" transform="translate(-8.88 -19.69)"/><path class="cls-5" d="M188.19,193.61c68.82-11.25,133.08-40.7,201-55.77,69.46-15.4,138.37-8.79,201,25.87" transform="translate(-8.88 -19.69)"/><path class="cls-5" d="M495.19,49.08a632.26,632.26,0,0,1,95,14.63" transform="translate(-8.88 -19.69)"/><path class="cls-5" d="M495.19,20.44q47.49.07,95,.27" transform="translate(-8.88 -19.69)"/><path class="cls-5" d="M188.19,263c67.21-1.28,134-16.09,201-21.49,66.32-5.35,135.46-.12,201,10.24" transform="translate(-8.88 -19.69)"/><path class="cls-5" d="M188.19,271.22c67.06-.58,134-9.35,201-12.46,66.72-3.1,134.53.05,201,5.95" transform="translate(-8.88 -19.69)"/><path class="cls-5" d="M188.19,219.05c68.55-6.94,133.5-36.64,201-49.65,67.08-12.93,138.77-3.93,201,23.31" transform="translate(-8.88 -19.69)"/><path class="cls-5" d="M188.19,206.21c68.79-9.06,133.26-39.23,201-53.45,68.18-14.31,138.74-6.14,201,25" transform="translate(-8.88 -19.69)"/><path class="cls-5" d="M250.19,136.22c55.74-15.87,112-38.23,170-43.83,59.63-5.75,116.08,2.61,170,29.32" transform="translate(-8.88 -19.69)"/><path class="cls-5" d="M250.19,121.25c55.65-14.82,112.26-36.38,170-40.59,59-4.3,115.56,3.23,170,27.05" transform="translate(-8.88 -19.69)"/><path class="cls-5" d="M495.19,38.75a949,949,0,0,1,95,10" transform="translate(-8.88 -19.69)"/><path class="cls-5" d="M495.19,29.44c31.72,1,63.37,2.65,95,5.27" transform="translate(-8.88 -19.69)"/></svg>